<mxfile host="app.diagrams.net" agent="Mozilla/5.0 (Windows NT 10.0; Win64; x64) AppleWebKit/537.36 (KHTML, like Gecko) Chrome/139.0.0.0 Safari/537.36" version="28.1.0">
  <diagram name="Page-1" id="knrP1FRMyhIRJTOhsAG8">
    <mxGraphModel dx="1097" dy="562" grid="1" gridSize="10" guides="1" tooltips="1" connect="1" arrows="1" fold="1" page="1" pageScale="1" pageWidth="827" pageHeight="1169" math="0" shadow="0">
      <root>
        <mxCell id="0" />
        <mxCell id="1" parent="0" />
        <mxCell id="nb5A6RRDomXuttytV97Y-50" value="" style="edgeStyle=orthogonalEdgeStyle;rounded=0;orthogonalLoop=1;jettySize=auto;html=1;" edge="1" parent="1" source="nb5A6RRDomXuttytV97Y-40" target="nb5A6RRDomXuttytV97Y-42">
          <mxGeometry relative="1" as="geometry" />
        </mxCell>
        <mxCell id="nb5A6RRDomXuttytV97Y-40" value="Login" style="rounded=1;whiteSpace=wrap;html=1;" vertex="1" parent="1">
          <mxGeometry x="310" y="405" width="120" height="60" as="geometry" />
        </mxCell>
        <mxCell id="nb5A6RRDomXuttytV97Y-49" value="" style="edgeStyle=orthogonalEdgeStyle;rounded=0;orthogonalLoop=1;jettySize=auto;html=1;" edge="1" parent="1" source="nb5A6RRDomXuttytV97Y-41" target="nb5A6RRDomXuttytV97Y-40">
          <mxGeometry relative="1" as="geometry" />
        </mxCell>
        <mxCell id="nb5A6RRDomXuttytV97Y-41" value="" style="ellipse;whiteSpace=wrap;html=1;aspect=fixed;fillColor=light-dark(#030303, #3b394a);strokeColor=#56517e;" vertex="1" parent="1">
          <mxGeometry x="352.5" y="325" width="35" height="35" as="geometry" />
        </mxCell>
        <mxCell id="nb5A6RRDomXuttytV97Y-51" value="" style="edgeStyle=orthogonalEdgeStyle;rounded=0;orthogonalLoop=1;jettySize=auto;html=1;" edge="1" parent="1" source="nb5A6RRDomXuttytV97Y-42" target="nb5A6RRDomXuttytV97Y-44">
          <mxGeometry relative="1" as="geometry" />
        </mxCell>
        <mxCell id="nb5A6RRDomXuttytV97Y-57" style="edgeStyle=orthogonalEdgeStyle;rounded=0;orthogonalLoop=1;jettySize=auto;html=1;" edge="1" parent="1" source="nb5A6RRDomXuttytV97Y-42">
          <mxGeometry relative="1" as="geometry">
            <mxPoint x="400" y="970" as="targetPoint" />
            <Array as="points">
              <mxPoint x="560" y="545" />
              <mxPoint x="560" y="970" />
            </Array>
          </mxGeometry>
        </mxCell>
        <mxCell id="nb5A6RRDomXuttytV97Y-42" value="Login Successful" style="rhombus;whiteSpace=wrap;html=1;" vertex="1" parent="1">
          <mxGeometry x="327.5" y="502" width="85" height="85" as="geometry" />
        </mxCell>
        <mxCell id="nb5A6RRDomXuttytV97Y-52" value="" style="edgeStyle=orthogonalEdgeStyle;rounded=0;orthogonalLoop=1;jettySize=auto;html=1;" edge="1" parent="1" source="nb5A6RRDomXuttytV97Y-44" target="nb5A6RRDomXuttytV97Y-45">
          <mxGeometry relative="1" as="geometry" />
        </mxCell>
        <mxCell id="nb5A6RRDomXuttytV97Y-44" value="Upload Details and Documents" style="rounded=1;whiteSpace=wrap;html=1;" vertex="1" parent="1">
          <mxGeometry x="310" y="620" width="120" height="60" as="geometry" />
        </mxCell>
        <mxCell id="nb5A6RRDomXuttytV97Y-53" value="" style="edgeStyle=orthogonalEdgeStyle;rounded=0;orthogonalLoop=1;jettySize=auto;html=1;" edge="1" parent="1" source="nb5A6RRDomXuttytV97Y-45" target="nb5A6RRDomXuttytV97Y-46">
          <mxGeometry relative="1" as="geometry" />
        </mxCell>
        <mxCell id="nb5A6RRDomXuttytV97Y-45" value="Another user visits posts&amp;nbsp;" style="rounded=1;whiteSpace=wrap;html=1;" vertex="1" parent="1">
          <mxGeometry x="310" y="730" width="120" height="60" as="geometry" />
        </mxCell>
        <mxCell id="nb5A6RRDomXuttytV97Y-54" value="" style="edgeStyle=orthogonalEdgeStyle;rounded=0;orthogonalLoop=1;jettySize=auto;html=1;" edge="1" parent="1" source="nb5A6RRDomXuttytV97Y-46" target="nb5A6RRDomXuttytV97Y-48">
          <mxGeometry relative="1" as="geometry" />
        </mxCell>
        <mxCell id="nb5A6RRDomXuttytV97Y-46" value="User contacts through post" style="rounded=1;whiteSpace=wrap;html=1;" vertex="1" parent="1">
          <mxGeometry x="310" y="830" width="120" height="60" as="geometry" />
        </mxCell>
        <mxCell id="nb5A6RRDomXuttytV97Y-48" value="" style="ellipse;whiteSpace=wrap;html=1;aspect=fixed;fillColor=light-dark(#030303, #3b394a);strokeColor=#56517e;" vertex="1" parent="1">
          <mxGeometry x="352.5" y="950" width="35" height="35" as="geometry" />
        </mxCell>
        <mxCell id="nb5A6RRDomXuttytV97Y-58" value="No&amp;nbsp;" style="text;html=1;align=center;verticalAlign=middle;whiteSpace=wrap;rounded=0;" vertex="1" parent="1">
          <mxGeometry x="450" y="510" width="60" height="30" as="geometry" />
        </mxCell>
      </root>
    </mxGraphModel>
  </diagram>
</mxfile>
